REM DIRINDEX 1\2,1\3\5,1\3\6,1\4\7,1\4\8
REM DIRNAME cjc139,folder01,folder02,folder03,folder04,folder05,folder06,folder07
TITLE ""
FILE "EG_E3_22.mp3" MP3
  TRACK 01 AUDIO
    TITLE "0:"
    INDEX 01 00:00:00
  TRACK 02 AUDIO
    TITLE "5:cjc139_2347"
    INDEX 01 00:00:17
  TRACK 03 AUDIO
    TITLE "6:cjc139_2348"
    INDEX 01 00:01:62
  TRACK 04 AUDIO
    TITLE "5:cjc139_2349"
    INDEX 01 00:04:48
  TRACK 05 AUDIO
    TITLE "6:cjc139_2350"
    INDEX 01 00:06:73
  TRACK 06 AUDIO
    TITLE "5:cjc139_2351"
    INDEX 01 00:09:59
  TRACK 07 AUDIO
    TITLE "6:cjc139_2352"
    INDEX 01 00:11:60
  TRACK 08 AUDIO
    TITLE "5:cjc139_2353"
    INDEX 01 00:14:45
  TRACK 09 AUDIO
    TITLE "6:cjc139_2354"
    INDEX 01 00:16:34
  TRACK 10 AUDIO
    TITLE "5:cjc139_2355"
    INDEX 01 00:19:20
  TRACK 11 AUDIO
    TITLE "6:cjc139_2356"
    INDEX 01 00:21:19
  TRACK 12 AUDIO
    TITLE "5:cjc139_2357"
    INDEX 01 00:24:06
  TRACK 13 AUDIO
    TITLE "6:cjc139_2358"
    INDEX 01 00:26:07
  TRACK 14 AUDIO
    TITLE "5:cjc139_2359"
    INDEX 01 00:28:68
  TRACK 15 AUDIO
    TITLE "6:cjc139_2360"
    INDEX 01 00:31:18
  TRACK 16 AUDIO
    TITLE "5:cjc139_2361"
    INDEX 01 00:34:02
  TRACK 17 AUDIO
    TITLE "6:cjc139_2362"
    INDEX 01 00:37:65
  TRACK 18 AUDIO
    TITLE "5:cjc139_2363"
    INDEX 01 00:40:48
  TRACK 19 AUDIO
    TITLE "6:cjc139_2364"
    INDEX 01 00:43:72
  TRACK 20 AUDIO
    TITLE "5:cjc139_2365"
    INDEX 01 00:46:58
  TRACK 21 AUDIO
    TITLE "6:cjc139_2366"
    INDEX 01 00:48:71
  TRACK 22 AUDIO
    TITLE "5:cjc139_2367"
    INDEX 01 00:51:56
  TRACK 23 AUDIO
    TITLE "6:cjc139_2368"
    INDEX 01 00:54:52
  TRACK 24 AUDIO
    TITLE "5:cjc139_2369"
    INDEX 01 00:57:35
  TRACK 25 AUDIO
    TITLE "6:cjc139_2370"
    INDEX 01 00:59:34
  TRACK 26 AUDIO
    TITLE "5:cjc139_2371"
    INDEX 01 01:02:16
  TRACK 27 AUDIO
    TITLE "6:cjc139_2372"
    INDEX 01 01:04:70
  TRACK 28 AUDIO
    TITLE "5:cjc139_2373"
    INDEX 01 01:07:53
  TRACK 29 AUDIO
    TITLE "6:cjc139_2374"
    INDEX 01 01:10:18
  TRACK 30 AUDIO
    TITLE "5:cjc139_2375"
    INDEX 01 01:13:02
  TRACK 31 AUDIO
    TITLE "6:cjc139_2376"
    INDEX 01 01:14:74
  TRACK 32 AUDIO
    TITLE "5:cjc139_2377"
    INDEX 01 01:17:55
  TRACK 33 AUDIO
    TITLE "6:cjc139_2378"
    INDEX 01 01:19:48
  TRACK 34 AUDIO
    TITLE "5:cjc139_2379"
    INDEX 01 01:22:31
  TRACK 35 AUDIO
    TITLE "6:cjc139_2380"
    INDEX 01 01:24:12
  TRACK 36 AUDIO
    TITLE "5:cjc139_2381"
    INDEX 01 01:26:74
  TRACK 37 AUDIO
    TITLE "6:cjc139_2382"
    INDEX 01 01:30:15
  TRACK 38 AUDIO
    TITLE "5:cjc139_2383"
    INDEX 01 01:32:74
  TRACK 39 AUDIO
    TITLE "6:cjc139_2384"
    INDEX 01 01:35:22
  TRACK 40 AUDIO
    TITLE "5:cjc139_2385"
    INDEX 01 01:38:08
  TRACK 41 AUDIO
    TITLE "6:cjc139_2386"
    INDEX 01 01:41:50
  TRACK 42 AUDIO
    TITLE "5:cjc139_2387"
    INDEX 01 01:44:32
  TRACK 43 AUDIO
    TITLE "6:cjc139_2388"
    INDEX 01 01:46:35
  TRACK 44 AUDIO
    TITLE "5:cjc139_2389"
    INDEX 01 01:49:20
  TRACK 45 AUDIO
    TITLE "6:cjc139_2390"
    INDEX 01 01:51:34
  TRACK 46 AUDIO
    TITLE "5:cjc139_2391"
    INDEX 01 01:54:21
  TRACK 47 AUDIO
    TITLE "6:cjc139_2392"
    INDEX 01 01:56:36
  TRACK 48 AUDIO
    TITLE "5:cjc139_2393"
    INDEX 01 01:59:16
  TRACK 49 AUDIO
    TITLE "6:cjc139_2394"
    INDEX 01 02:00:61
  TRACK 50 AUDIO
    TITLE "5:cjc139_2395"
    INDEX 01 02:03:47
  TRACK 51 AUDIO
    TITLE "6:cjc139_2396"
    INDEX 01 02:07:08
  TRACK 52 AUDIO
    TITLE "5:cjc139_2397"
    INDEX 01 02:09:68
  TRACK 53 AUDIO
    TITLE "6:cjc139_2398"
    INDEX 01 02:13:26
  TRACK 54 AUDIO
    TITLE "5:cjc139_2399"
    INDEX 01 02:16:07
  TRACK 55 AUDIO
    TITLE "6:cjc139_2400"
    INDEX 01 02:19:56
  TRACK 56 AUDIO
    TITLE "5:cjc139_2401"
    INDEX 01 02:21:06
  TRACK 57 AUDIO
    TITLE "6:cjc139_2402"
    INDEX 01 02:24:46
  TRACK 58 AUDIO
    TITLE "5:cjc139_2403"
    INDEX 01 02:27:28
  TRACK 59 AUDIO
    TITLE "6:cjc139_2404"
    INDEX 01 02:30:11
  TRACK 60 AUDIO
    TITLE "5:cjc139_2405"
    INDEX 01 02:32:71
  TRACK 61 AUDIO
    TITLE "6:cjc139_2406"
    INDEX 01 02:36:13
  TRACK 62 AUDIO
    TITLE "5:cjc139_2407"
    INDEX 01 02:38:73
  TRACK 63 AUDIO
    TITLE "6:cjc139_2408"
    INDEX 01 02:42:08
  TRACK 64 AUDIO
    TITLE "5:cjc139_2409"
    INDEX 01 02:44:66
  TRACK 65 AUDIO
    TITLE "6:cjc139_2410"
    INDEX 01 02:49:04
  TRACK 66 AUDIO
    TITLE "5:cjc139_2411"
    INDEX 01 02:51:62
  TRACK 67 AUDIO
    TITLE "6:cjc139_2412"
    INDEX 01 02:55:03
  TRACK 68 AUDIO
    TITLE "5:cjc139_2413"
    INDEX 01 02:57:63
  TRACK 69 AUDIO
    TITLE "6:cjc139_2414"
    INDEX 01 03:01:66
  TRACK 70 AUDIO
    TITLE "0:"
    INDEX 01 03:04:59
